<svg xmlns="http://www.w3.org/2000/svg" viewBox="0 0 720 200" width="720" height="200" role="img" aria-label="Internships posted per week, last 16 weeks"><title>Internships posted per week</title><g font-family="-apple-system,Segoe UI,Roboto,sans-serif" font-size="11"><line x1="38" y1="174.0" x2="706" y2="174.0" stroke="#30363d" stroke-width="1"/><text x="32" y="178.0" text-anchor="end" fill="#8b949e">0</text><line x1="38" y1="98.0" x2="706" y2="98.0" stroke="#30363d" stroke-width="1"/><text x="32" y="102.0" text-anchor="end" fill="#8b949e">114</text><line x1="38" y1="22.0" x2="706" y2="22.0" stroke="#30363d" stroke-width="1"/><text x="32" y="26.0" text-anchor="end" fill="#8b949e">228</text><path d="M38.0,174 L38.0,172.7 L82.5,172.7 L127.1,173.3 L171.6,172.0 L216.1,170.7 L260.7,170.7 L305.2,167.3 L349.7,164.0 L394.3,154.7 L438.8,154.0 L483.3,135.3 L527.9,136.7 L572.4,23.3 L616.9,22.0 L661.5,63.3 L706.0,138.7 L706.0,174 Z" fill="#2f81f7" fill-opacity="0.12"/><polyline points="38.0,172.7 82.5,172.7 127.1,173.3 171.6,172.0 216.1,170.7 260.7,170.7 305.2,167.3 349.7,164.0 394.3,154.7 438.8,154.0 483.3,135.3 527.9,136.7 572.4,23.3 616.9,22.0 661.5,63.3 706.0,138.7" fill="none" stroke="#2f81f7" stroke-width="2" stroke-linejoin="round" stroke-linecap="round"/><circle cx="616.9" cy="22.0" r="3.5" fill="#2f81f7"/><text x="616.9" y="13.0" text-anchor="middle" fill="#e6edf3" font-weight="600">228</text><circle cx="706.0" cy="138.7" r="3.5" fill="#2f81f7"/><text x="706.0" y="129.7" text-anchor="middle" fill="#e6edf3" font-weight="600">53</text><text x="38.0" y="192" text-anchor="middle" fill="#8b949e">Jun 08</text><text x="216.1" y="192" text-anchor="middle" fill="#8b949e">Jul 06</text><text x="394.3" y="192" text-anchor="middle" fill="#8b949e">Aug 03</text><text x="572.4" y="192" text-anchor="middle" fill="#8b949e">Aug 31</text><text x="706.0" y="192" text-anchor="middle" fill="#8b949e">Sep 21</text></g></svg>