<svg xmlns="http://www.w3.org/2000/svg" viewBox="0 0 720 200" width="720" height="200" role="img" aria-label="Internships posted per week, last 16 weeks"><title>Internships posted per week</title><g font-family="-apple-system,Segoe UI,Roboto,sans-serif" font-size="11"><line x1="38" y1="174.0" x2="706" y2="174.0" stroke="#d0d7de" stroke-width="1"/><text x="32" y="178.0" text-anchor="end" fill="#57606a">0</text><line x1="38" y1="98.0" x2="706" y2="98.0" stroke="#d0d7de" stroke-width="1"/><text x="32" y="102.0" text-anchor="end" fill="#57606a">11</text><line x1="38" y1="22.0" x2="706" y2="22.0" stroke="#d0d7de" stroke-width="1"/><text x="32" y="26.0" text-anchor="end" fill="#57606a">22</text><path d="M38.0,174 L38.0,160.2 L82.5,174.0 L127.1,174.0 L171.6,174.0 L216.1,139.5 L260.7,174.0 L305.2,174.0 L349.7,160.2 L394.3,160.2 L438.8,167.1 L483.3,153.3 L527.9,139.5 L572.4,139.5 L616.9,111.8 L661.5,70.4 L706.0,22.0 L706.0,174 Z" fill="#0969da" fill-opacity="0.12"/><polyline points="38.0,160.2 82.5,174.0 127.1,174.0 171.6,174.0 216.1,139.5 260.7,174.0 305.2,174.0 349.7,160.2 394.3,160.2 438.8,167.1 483.3,153.3 527.9,139.5 572.4,139.5 616.9,111.8 661.5,70.4 706.0,22.0" fill="none" stroke="#0969da" stroke-width="2" stroke-linejoin="round" stroke-linecap="round"/><circle cx="706.0" cy="22.0" r="3.5" fill="#0969da"/><text x="706.0" y="13.0" text-anchor="middle" fill="#24292f" font-weight="600">22</text><text x="38.0" y="192" text-anchor="middle" fill="#57606a">Apr 20</text><text x="216.1" y="192" text-anchor="middle" fill="#57606a">May 18</text><text x="394.3" y="192" text-anchor="middle" fill="#57606a">Jun 15</text><text x="572.4" y="192" text-anchor="middle" fill="#57606a">Jul 13</text><text x="706.0" y="192" text-anchor="middle" fill="#57606a">Aug 03</text></g></svg>